<?xml version="1.0" encoding="utf-8"?><svg xmlns="http://www.w3.org/2000/svg" xmlns:xlink="http://www.w3.org/1999/xlink"><symbol viewBox="0 0 24 24" id="arrow-left" xmlns="http://www.w3.org/2000/svg"><path fill="currentColor" d="m7.825 13 4.9 4.9q.3.3.288.7t-.313.7q-.3.275-.7.288t-.7-.288l-6.6-6.6q-.15-.15-.213-.325T4.426 12t.063-.375.212-.325l6.6-6.6q.275-.275.688-.275t.712.275q.3.3.3.713t-.3.712L7.825 11H19q.425 0 .713.288T20 12t-.288.713T19 13z"/></symbol><symbol viewBox="0 0 24 24" fill="none" id="bin" xmlns="http://www.w3.org/2000/svg"><g stroke="currentColor" stroke-width="1.5"><path d="M20.5 6h-17M18.833 8.5l-.46 6.9c-.177 2.654-.265 3.981-1.13 4.79-.865.81-2.196.81-4.856.81h-.774c-2.66 0-3.991 0-4.856-.81-.865-.809-.954-2.136-1.13-4.79l-.46-6.9M9.5 11l.5 5M14.5 11l-.5 5" stroke-linecap="round"/><path d="M6.5 6h.11a2 2 0 0 0 1.83-1.32l.034-.103.097-.291c.083-.249.125-.373.18-.479a1.5 1.5 0 0 1 1.094-.788C9.962 3 10.093 3 10.355 3h3.29c.262 0 .393 0 .51.019a1.5 1.5 0 0 1 1.094.788c.055.106.097.23.18.479l.097.291A2 2 0 0 0 17.5 6"/></g></symbol><symbol viewBox="0 0 24 24" id="chat" xmlns="http://www.w3.org/2000/svg"><path fill="currentColor" d="M6 14h8v-2H6zm0-3h12V9H6zm0-3h12V6H6zM2 22V4q0-.825.588-1.412T4 2h16q.825 0 1.413.588T22 4v12q0 .825-.587 1.413T20 18H6zm3.15-6H20V4H4v13.125zM4 16V4z"/></symbol><symbol viewBox="0 0 24 24" id="desktop" xmlns="http://www.w3.org/2000/svg"><path fill="currentColor" d="M8 21v-2h2v-2H4q-.825 0-1.412-.587T2 15V5q0-.825.588-1.412T4 3h16q.825 0 1.413.588T22 5v10q0 .825-.587 1.413T20 17h-6v2h2v2zm-4-6h16V5H4zm0 0V5z"/></symbol><symbol viewBox="0 0 24 24" id="home" xmlns="http://www.w3.org/2000/svg"><path fill="currentColor" d="M6 19h3v-5q0-.425.288-.712T10 13h4q.425 0 .713.288T15 14v5h3v-9l-6-4.5L6 10zm-2 0v-9q0-.475.213-.9t.587-.7l6-4.5q.525-.4 1.2-.4t1.2.4l6 4.5q.375.275.588.7T20 10v9q0 .825-.588 1.413T18 21h-4q-.425 0-.712-.288T13 20v-5h-2v5q0 .425-.288.713T10 21H6q-.825 0-1.412-.587T4 19m8-6.75"/></symbol><symbol viewBox="0 0 24 24" id="lock" xmlns="http://www.w3.org/2000/svg"><path fill="currentColor" d="M6 8h9V6q0-1.25-.875-2.125T12 3t-2.125.875T9 6H7q0-2.075 1.463-3.537T12 1t3.538 1.463T17 6v2h1q.825 0 1.413.588T20 10v10q0 .825-.587 1.413T18 22H6q-.825 0-1.412-.587T4 20V10q0-.825.588-1.412T6 8m0 12h12V10H6zm6-3q.825 0 1.413-.587T14 15t-.587-1.412T12 13t-1.412.588T10 15t.588 1.413T12 17m-6 3V10z"/></symbol><symbol viewBox="0 0 24 24" id="mobile" xmlns="http://www.w3.org/2000/svg"><path fill="currentColor" d="M7 23q-.825 0-1.412-.587T5 21V3q0-.825.588-1.412T7 1h10q.825 0 1.413.588T19 3v3.1q.45.175.725.55T20 7.5v2q0 .475-.275.85T19 10.9V21q0 .825-.587 1.413T17 23zm0-2h10V3H7zm0 0V3zm5-1q.425 0 .713-.288T13 19t-.288-.712T12 18t-.712.288T11 19t.288.713T12 20"/></symbol><symbol viewBox="0 0 24 24" id="new-page" xmlns="http://www.w3.org/2000/svg"><path fill="currentColor" d="M10 17h4v-2h-4zm0-4h7v-2h-7zM7 9h10V7H7zm-.375 13q-1.975 0-3.363-1.388T1.875 17.25q0-1.425.738-2.55T4.55 13H2v-2h6v6H6v-2.425q-.925.2-1.525.95t-.6 1.725q0 1.15.812 1.95t1.938.8zM10 21v-2h9V5H5v4H3V5q0-.825.588-1.412T5 3h14q.825 0 1.413.588T21 5v14q0 .825-.587 1.413T19 21z"/></symbol><symbol viewBox="0 0 24 24" id="save" xmlns="http://www.w3.org/2000/svg"><path fill="currentColor" d="m18 21 4-4-1.4-1.4-1.6 1.6v-4.175h-2V17.2l-1.6-1.6L14 17zm-4 3v-2h8v2zm-8-4q-.825 0-1.412-.587T4 18V4q0-.825.588-1.412T6 2h7l6 6v3.025h-2V9h-5V4H6v14h6v2zm0-2V4z"/></symbol><symbol viewBox="0 0 24 24" id="send" xmlns="http://www.w3.org/2000/svg"><path fill="currentColor" d="m19.8 12.925-15.4 6.5q-.5.2-.95-.088T3 18.5v-13q0-.55.45-.837t.95-.088l15.4 6.5q.625.275.625.925t-.625.925M5 17l11.85-5L5 7v3.5l6 1.5-6 1.5zm0 0V7z"/></symbol><symbol viewBox="0 0 24 24" id="settings" xmlns="http://www.w3.org/2000/svg"><path fill="currentColor" d="M11 17h2l.3-1.5q.3-.125.563-.262t.537-.338l1.45.45 1-1.7-1.15-1q.05-.35.05-.65t-.05-.65l1.15-1-1-1.7-1.45.45q-.275-.2-.537-.338T13.3 8.5L13 7h-2l-.3 1.5q-.3.125-.562.263T9.6 9.1l-1.45-.45-1 1.7 1.15 1q-.05.35-.05.65t.05.65l-1.15 1 1 1.7 1.45-.45q.275.2.538.338t.562.262zm1-3q-.825 0-1.412-.587T10 12t.588-1.412T12 10t1.413.588T14 12t-.587 1.413T12 14m-7 7q-.825 0-1.412-.587T3 19V5q0-.825.588-1.412T5 3h14q.825 0 1.413.588T21 5v14q0 .825-.587 1.413T19 21zm0-2h14V5H5zM5 5v14z"/></symbol></svg>