<svg xmlns="http://www.w3.org/2000/svg" width="210" height="25" viewBox="0 0 210 25" fill="none"><path d="M74.6486 6.19002H57.4278V0.199707H82.4539V5.04168V6.19002H74.6486Z" fill="#1FA9DC"></path><path d="M41.6244 6.26105H30.6627V18.8218H42.5047C43.9863 18.8218 45.0814 18.4903 45.7685 17.8392C46.4557 17.188 46.7992 16.1699 46.7992 14.7848V10.4637C46.7992 9.01943 46.3805 7.9658 45.5431 7.27917C44.7057 6.59253 43.4066 6.27289 41.6244 6.27289V6.26105ZM43.7609 0.199707C47.2609 0.199707 49.8054 0.862667 51.4051 2.16491C52.994 3.47899 53.7885 5.57441 53.7885 8.45118V16.9039C53.7885 19.6386 53.1551 21.6393 51.8774 22.8942C50.6106 24.161 48.5922 24.7884 45.8115 24.7884H23.6627V0.199707H43.7609Z" fill="#1FA9DC"></path><path d="M64.4278 15.5069V18.8572H82.733V24.812H57.4278V15.5069V9.5166H64.4278H65.233H74.6486H82.4539V15.5069H74.6486H65.233H64.4278Z" fill="#1FA9DC"></path><path d="M117.776 24.8121H107.523L93.8019 6.91217V24.8121H86.8018V0.199707H97.1623L110.808 18.2535V0.199707H117.776V24.8121Z" fill="#1FA9DC"></path><path d="M137.52 24.8121H130.52V6.22553H120.943V0.199707H147.086V6.22553H137.52V24.8121Z" fill="#1FA9DC"></path><path d="M157.264 0.199707H150.264V24.8121H157.264V0.199707Z" fill="#1FA9DC"></path><path d="M74.6486 6.19002H57.4278V0.199707H82.4539V5.04168V6.19002H74.6486Z" fill="#1FA9DC"></path><path d="M7.01065 9.5166H0.0106506V24.8239H7.01065V9.5166Z" fill="#1FA9DC"></path><path d="M18.842 9.5166H11.842V24.8239H18.842V9.5166Z" fill="#1FA9DC"></path><path d="M198.169 9.5166H191.169V24.8239H198.169V9.5166Z" fill="#1FA9DC"></path><path d="M210 9.5166H203V24.8239H210V9.5166Z" fill="#1FA9DC"></path><path d="M171.682 15.5424H181.957H186.616V14.3823V9.54028H171.682V15.5424Z" fill="#1FA9DC"></path><path d="M161.59 0.199707V6.19002V6.22553V12.204V24.8121H168.59V6.22553H186.616V6.19002V5.04168V0.199707H161.59Z" fill="#1FA9DC"></path><path d="M7.00001 3.94069C7.00001 6.01244 5.43252 7.70535 3.5 7.70535C1.56749 7.70535 0 6.02427 0 3.94069C0 1.8571 1.56749 0.176025 3.5 0.176025C5.43252 0.176025 7.00001 1.8571 7.00001 3.94069Z" fill="#1FA9DC"></path><path d="M18.8313 3.94069C18.8313 6.01244 17.2639 7.70535 15.3313 7.70535C13.3988 7.70535 11.8313 6.02427 11.8313 3.94069C11.8313 1.8571 13.3988 0.176025 15.3313 0.176025C17.2639 0.176025 18.8313 1.8571 18.8313 3.94069Z" fill="#1FA9DC"></path><path d="M198.169 3.94069C198.169 6.01244 196.601 7.70535 194.669 7.70535C192.736 7.70535 191.169 6.02427 191.169 3.94069C191.169 1.8571 192.736 0.176025 194.669 0.176025C196.601 0.176025 198.169 1.8571 198.169 3.94069Z" fill="#1FA9DC"></path><path d="M209.989 3.94069C209.989 6.01244 208.422 7.70535 206.489 7.70535C204.556 7.70535 202.989 6.02427 202.989 3.94069C202.989 1.8571 204.556 0.176025 206.489 0.176025C208.422 0.176025 209.989 1.8571 209.989 3.94069Z" fill="#1FA9DC"></path></svg>